<svg width="16" height="16" viewBox="0 0 16 16" fill="none" xmlns="http://www.w3.org/2000/svg">
<path d="M15.6644 14.2005L11.4872 10.0233C12.2331 8.97903 12.6807 7.71094 12.6807 6.36828C12.6807 2.86242 9.84617 0.0279541 6.34035 0.0279541C2.83454 0.0279541 0 2.86246 0 6.36828C0 9.8741 2.8345 12.7086 6.34031 12.7086C7.68297 12.7086 8.95106 12.2611 9.99535 11.5151L14.1725 15.6923C14.5455 16.0652 15.2168 16.0652 15.6644 15.6923C16.1119 15.2448 16.1119 14.648 15.6644 14.2005ZM6.34031 11.2168C3.655 11.2168 1.49184 9.0536 1.49184 6.36832C1.49184 3.683 3.655 1.51984 6.34031 1.51984C9.02563 1.51984 11.1888 3.683 11.1888 6.36832C11.1888 9.0536 9.02563 11.2168 6.34031 11.2168Z" fill="#4F4F4F"/>
</svg>
